# xmcd CD database file
#
# Track frame offsets:
#	150
#	18036
#	33606
#	54089
#	66574
#	81462
#	100127
#	120458
#	139933
#	162201
#	181582
#	195037
#	212092
#	227664
#	246318
#	268603
#	284406
#
# Disc length: 3994 seconds
#
# Revision: 0
# Processed by: cddbd v1.5.2PL0 Copyright (c) Steve Scherf et al.
# Submitted via: CDex 1.70beta2
#
DISCID=e60f9811
DTITLE=Various Artist - Smooth Jazz Christmas (Jazz Club)
DYEAR=2007
DGENRE=Jazz
TTITLE0=Have Yourself A Merry Little Christmas (Lee Ritenour)
TTITLE1=Christmas Time Is Here (Patti Austin)
TTITLE2=I'll Be Home For Christmas (Will Downing)
TTITLE3=Sleigh Ride (Laura Fygi)
TTITLE4=Kissing By The Mistletoe (Joe Williams)
TTITLE5=Winter Wonderland (Album Version) (Shirley Horn)
TTITLE6=Those Soulful Jingle Bells (Mark Whitfield)
TTITLE7=The Christmas Song (Chestnuts Roasting On An Open Flame) (Phil Perry)
TTITLE8=Let There Be Peace On Earth (Voyce Boxing)
TTITLE9=Here Comes Santa Claus (Jeff Golub)
TTITLE10=Hark, The Herald Angels Sing (Russ Freeman)
TTITLE11=Looks Like December (Album Version) (Antonio Carlos Jobim)
TTITLE12=This Christmas (Gerald Albright)
TTITLE13=O Holy Night (Carl Anderson)
TTITLE14=The First Noel (George Howard)
TTITLE15=Blue Christmas (Laima)
TTITLE16=After The Snow Falls (Album Version) (David Benoit)
EXTD=YEAR: 2007
EXTT0=
EXTT1=
EXTT2=
EXTT3=
EXTT4=
EXTT5=
EXTT6=
EXTT7=
EXTT8=
EXTT9=
EXTT10=
EXTT11=
EXTT12=
EXTT13=
EXTT14=
EXTT15=
EXTT16=
PLAYORDER=
